<svg xmlns="http://www.w3.org/2000/svg" xmlns:xlink="http://www.w3.org/1999/xlink" fill="none" version="1.1" width="18" height="18" viewBox="0 0 18 18"><defs><clipPath id="master_svg0_210_3785"><rect x="0" y="0" width="18" height="18" rx="0"/></clipPath></defs><g><g style="opacity:0;"><rect x="0" y="0" width="18" height="18" rx="0" fill="#EDEFF2" fill-opacity="1"/></g><g clip-path="url(#master_svg0_210_3785)"><g><path d="M2.25,7.48901L2.25,3Q2.25,2.9261315,2.235589,2.853682Q2.221178,2.781233,2.19291,2.712987Q2.164641,2.644742,2.123602,2.583322Q2.082563,2.521903,2.03033,2.46967Q1.978097,2.417437,1.916678,2.376398Q1.855258,2.335359,1.787013,2.30709Q1.718767,2.278822,1.646318,2.264411Q1.5738685000000001,2.25,1.5,2.25Q1.4261314999999999,2.25,1.353682,2.264411Q1.281233,2.278822,1.212987,2.30709Q1.144742,2.335359,1.083322,2.376398Q1.021903,2.417437,0.96967,2.46967Q0.917437,2.521903,0.876398,2.583322Q0.835359,2.644742,0.80709,2.712987Q0.778822,2.781233,0.764411,2.853682Q0.75,2.9261315,0.75,3L0.75,7.5Q0.75,8.60872,2.18391,9.24601Q3.31787,9.75,4.875,9.75Q6.43214,9.75,7.5661,9.24601Q9,8.60872,9,7.5L9,3Q9,2.9261315,8.98559,2.853682Q8.97118,2.781233,8.942910000000001,2.712987Q8.91464,2.644742,8.8736,2.583322Q8.83256,2.521903,8.78033,2.46967Q8.728100000000001,2.417437,8.66668,2.376398Q8.605260000000001,2.335359,8.53701,2.30709Q8.46877,2.278822,8.39632,2.264411Q8.32387,2.25,8.25,2.25Q8.17613,2.25,8.10368,2.264411Q8.03123,2.278822,7.96299,2.30709Q7.89474,2.335359,7.83332,2.376398Q7.7719,2.417437,7.71967,2.46967Q7.66744,2.521903,7.6264,2.583322Q7.58536,2.644742,7.55709,2.712987Q7.52882,2.781233,7.51441,2.853682Q7.5,2.9261315,7.5,3L7.5,7.48901Q7.48519,7.5209,7.44148,7.56682Q7.28794,7.72816,6.95688,7.8753Q6.11381,8.25,4.875,8.25Q3.6362,8.25,2.79312,7.8753Q2.462058,7.72816,2.30852,7.56682Q2.264816,7.5209,2.25,7.48901Z" fill-rule="evenodd" fill="#909399" fill-opacity="1"/></g><g><path d="M2.249947,5.24109019L2.25,5.25Q2.25,5.3238685,2.235589,5.396318Q2.221178,5.468767,2.19291,5.537013Q2.164641,5.605258,2.123602,5.666678Q2.082563,5.728097,2.03033,5.78033Q1.978097,5.832563,1.916678,5.873602Q1.855258,5.914641,1.787013,5.94291Q1.718767,5.971178,1.646318,5.985589Q1.5738685000000001,6,1.5,6Q1.4261314999999999,6,1.353682,5.985589Q1.281233,5.971178,1.212987,5.94291Q1.144742,5.914641,1.083322,5.873602Q1.021903,5.832563,0.96967,5.78033Q0.917437,5.728097,0.876398,5.666678Q0.835359,5.605258,0.80709,5.537013Q0.778822,5.468767,0.764411,5.396318Q0.75,5.3238685,0.75,5.25Q0.75,5.1761315,0.764411,5.103682Q0.778822,5.031233,0.80709,4.962987Q0.835359,4.894742,0.876398,4.833322Q0.917437,4.771903,0.96967,4.71967Q1.021903,4.667437,1.083322,4.626398Q1.144742,4.585359,1.212987,4.55709Q1.281233,4.528822,1.353682,4.514411Q1.4261314999999999,4.5,1.5,4.5Q1.5731635,4.5,1.644948,4.51414Q1.716732,4.52828,1.78443,4.556026Q1.852128,4.583773,1.913187,4.62408Q1.974247,4.664387,2.026365,4.715734Q2.078483,4.767082,2.1196960000000002,4.827534Q2.160908,4.887986,2.18966,4.955263Q2.218412,5.02254,2.233619,5.094106Q2.248827,5.1656716,2.249917,5.2388269Q2.264692,5.2707691,2.30852,5.3168218Q2.462058,5.478157,2.79312,5.625297Q3.6362,6,4.875,6Q6.11381,6,6.95688,5.625297Q7.28794,5.478158,7.44148,5.3168237Q7.48531,5.2707709,7.50008,5.238829Q7.50117,5.1656734,7.51638,5.094108Q7.53159,5.022542,7.56034,4.955265Q7.58909,4.887987,7.6303,4.827535Q7.67152,4.767083,7.72363,4.7157350000000005Q7.77575,4.664387,7.83681,4.62408Q7.89787,4.583773,7.96557,4.556026Q8.03327,4.52828,8.10505,4.51414Q8.17684,4.5,8.25,4.5Q8.32387,4.5,8.39632,4.514411Q8.46877,4.528822,8.53701,4.55709Q8.605260000000001,4.585359,8.66668,4.626398Q8.728100000000001,4.667437,8.78033,4.71967Q8.83256,4.771903,8.8736,4.833322Q8.91464,4.894742,8.942910000000001,4.962987Q8.97118,5.031233,8.98559,5.103682Q9,5.1761315,9,5.25L2.249947,5.24109019Z" fill-rule="evenodd" fill="#909399" fill-opacity="1"/></g><g><path d="M7.5661,1.253981Q6.43214,0.75,4.875,0.75Q3.31787,0.75,2.183911,1.253981Q0.75,1.891275,0.75,3Q0.75,4.10872,2.18391,4.74601Q3.31787,5.25,4.875,5.25Q6.43214,5.25,7.5661,4.74601Q9,4.10872,9,3Q9,1.8912740000000001,7.5661,1.253981ZM2.79312,2.6247Q3.63619,2.25,4.875,2.25Q6.11382,2.25,6.95689,2.6247Q7.28794,2.77184,7.44148,2.93317Q7.47792,2.97146,7.49428,3Q7.47792,3.02853,7.44148,3.06682Q7.28794,3.22816,6.95688,3.3753Q6.11381,3.75,4.875,3.75Q3.6362,3.75,2.79312,3.3753Q2.462059,3.22816,2.30852,3.06682Q2.272081,3.02853,2.255724,3Q2.272081,2.97146,2.308521,2.93317Q2.462058,2.77184,2.79312,2.6247Z" fill-rule="evenodd" fill="#909399" fill-opacity="1"/></g><g><path d="M15,3.75L15,6Q15,6.073869999999999,15.01441,6.146319999999999Q15.02882,6.21877,15.05709,6.28701Q15.08536,6.35526,15.1264,6.41668Q15.16744,6.4781,15.21967,6.53033Q15.2719,6.58256,15.33332,6.6236Q15.39474,6.66464,15.46299,6.69291Q15.53123,6.72118,15.60368,6.73559Q15.67613,6.75,15.75,6.75Q15.82387,6.75,15.89632,6.73559Q15.96877,6.72118,16.037010000000002,6.69291Q16.10526,6.66464,16.16668,6.6236Q16.2281,6.58256,16.28033,6.53033Q16.33256,6.4781,16.3736,6.41668Q16.41464,6.35526,16.44291,6.28701Q16.47118,6.21877,16.485590000000002,6.146319999999999Q16.5,6.073869999999999,16.5,6L16.5,3.75Q16.5,2.8180199999999997,15.84098,2.1590077Q15.18197,1.5,14.25,1.5L12,1.5Q11.9261315,1.5,11.853682,1.514411Q11.781233,1.528822,11.712987,1.55709Q11.644742,1.585359,11.583322,1.626398Q11.521903,1.667437,11.46967,1.71967Q11.417437,1.771903,11.376398,1.833322Q11.335359,1.894742,11.30709,1.962987Q11.278822,2.031233,11.264410999999999,2.103682Q11.25,2.1761315,11.25,2.25Q11.25,2.3238685,11.264410999999999,2.396318Q11.278822,2.468767,11.30709,2.537013Q11.335359,2.605258,11.376398,2.666678Q11.417437,2.728097,11.46967,2.78033Q11.521903,2.832563,11.583322,2.873602Q11.644742,2.914641,11.712987,2.94291Q11.781233,2.971178,11.853682,2.985589Q11.9261315,3,12,3L14.25,3Q14.560649999999999,3,14.78033,3.219672Q15,3.43934,15,3.75Z" fill-rule="evenodd" fill="#909399" fill-opacity="1"/></g><g><path d="M3,14.25L3,12Q3,11.9261315,2.985589,11.853682Q2.971178,11.781233,2.94291,11.712987Q2.914641,11.644742,2.873602,11.583322Q2.832563,11.521903,2.78033,11.46967Q2.728097,11.417437,2.666678,11.376398Q2.605258,11.335359,2.537013,11.30709Q2.468767,11.278822,2.396318,11.264410999999999Q2.3238685,11.25,2.25,11.25Q2.1761315,11.25,2.103682,11.264410999999999Q2.031233,11.278822,1.962987,11.30709Q1.894742,11.335359,1.833322,11.376398Q1.771903,11.417437,1.71967,11.46967Q1.667437,11.521903,1.626398,11.583322Q1.585359,11.644742,1.55709,11.712987Q1.528822,11.781233,1.514411,11.853682Q1.5,11.9261315,1.5,12L1.5,14.25Q1.5,15.18197,2.1590077,15.84098Q2.8180199999999997,16.5,3.75,16.5L6,16.5Q6.073869999999999,16.5,6.146319999999999,16.485590000000002Q6.21877,16.47118,6.28701,16.44291Q6.35526,16.41464,6.41668,16.3736Q6.4781,16.33256,6.53033,16.28033Q6.58256,16.2281,6.6236,16.16668Q6.66464,16.10526,6.69291,16.037010000000002Q6.72118,15.96877,6.73559,15.89632Q6.75,15.82387,6.75,15.75Q6.75,15.67613,6.73559,15.60368Q6.72118,15.53123,6.69291,15.46299Q6.66464,15.39474,6.6236,15.33332Q6.58256,15.2719,6.53033,15.21967Q6.4781,15.16744,6.41668,15.1264Q6.35526,15.08536,6.28701,15.05709Q6.21877,15.02882,6.146319999999999,15.01441Q6.073869999999999,15,6,15L3.75,15Q3.43934,15,3.219672,14.78033Q3,14.560649999999999,3,14.25Z" fill-rule="evenodd" fill="#909399" fill-opacity="1"/></g><g><path d="M12.375,14.25L12.375,16.5Q12.375,16.57387,12.389410999999999,16.64632Q12.403822,16.71877,12.43209,16.78701Q12.460359,16.85526,12.501398,16.91668Q12.542437,16.9781,12.59467,17.03033Q12.646903,17.08256,12.708322,17.1236Q12.769742,17.16464,12.837987,17.19291Q12.906233,17.22118,12.978682,17.235590000000002Q13.0511315,17.25,13.125,17.25Q13.1988685,17.25,13.271318,17.235590000000002Q13.343767,17.22118,13.412013,17.19291Q13.480258,17.16464,13.541678,17.1236Q13.603097,17.08256,13.65533,17.03033Q13.707563,16.9781,13.748602,16.91668Q13.789641,16.85526,13.81791,16.78701Q13.846178,16.71877,13.860589000000001,16.64632Q13.875,16.57387,13.875,16.5L13.875,14.25Q13.875,14.1761315,13.860589000000001,14.103682Q13.846178,14.031233,13.81791,13.962987Q13.789641,13.894742,13.748602,13.833322Q13.707563,13.771903,13.65533,13.71967Q13.603097,13.667437,13.541678,13.626398Q13.480258,13.585359,13.412013,13.55709Q13.343767,13.528822,13.271318,13.514410999999999Q13.1988685,13.5,13.125,13.5Q13.0511315,13.5,12.978682,13.514410999999999Q12.906233,13.528822,12.837987,13.55709Q12.769742,13.585359,12.708322,13.626398Q12.646903,13.667437,12.59467,13.71967Q12.542437,13.771903,12.501398,13.833322Q12.460359,13.894742,12.43209,13.962987Q12.403822,14.031233,12.389410999999999,14.103682Q12.375,14.1761315,12.375,14.25Z" fill-rule="evenodd" fill="#909399" fill-opacity="1"/></g><g><path d="M13.125,15.75L10.875,15.75Q10.8011315,15.75,10.728682,15.764410999999999Q10.656233,15.778822,10.587987,15.80709Q10.519742,15.835359,10.458322,15.876398Q10.396903,15.917437,10.34467,15.96967Q10.292437,16.021903000000002,10.251398,16.083322Q10.210359,16.144742,10.18209,16.212987Q10.153822,16.281233,10.139410999999999,16.353682Q10.125,16.4261315,10.125,16.5Q10.125,16.5738685,10.139410999999999,16.646318Q10.153822,16.718767,10.18209,16.787013Q10.210359,16.855258,10.251398,16.916678Q10.292437,16.978096999999998,10.34467,17.03033Q10.396903,17.082563,10.458322,17.123601999999998Q10.519742,17.164641,10.587987,17.19291Q10.656233,17.221178,10.728682,17.235589Q10.8011315,17.25,10.875,17.25L15.375,17.25Q15.44887,17.25,15.52132,17.235589Q15.59377,17.221178,15.66201,17.19291Q15.730260000000001,17.164641,15.79168,17.123601999999998Q15.853100000000001,17.082563,15.90533,17.03033Q15.95756,16.978096999999998,15.9986,16.916678Q16.03964,16.855258,16.06791,16.787013Q16.09618,16.718767,16.110590000000002,16.646318Q16.125,16.5738685,16.125,16.5Q16.125,16.4261315,16.110590000000002,16.353682Q16.09618,16.281233,16.06791,16.212987Q16.03964,16.144742,15.9986,16.083322Q15.95756,16.021903000000002,15.90533,15.96967Q15.853100000000001,15.917437,15.79168,15.876398Q15.730260000000001,15.835359,15.66201,15.80709Q15.59377,15.778822,15.52132,15.764410999999999Q15.44887,15.75,15.375,15.75L13.125,15.75Z" fill-rule="evenodd" fill="#909399" fill-opacity="1"/></g><g><path d="M9,14.25L9,9.75Q9,9.6761315,9.014410999999999,9.603682Q9.028822,9.531233,9.05709,9.462987Q9.085359,9.394742,9.126398,9.333322Q9.167437,9.271903,9.21967,9.21967Q9.271903,9.167437,9.333322,9.126398Q9.394742,9.085359,9.462987,9.05709Q9.531233,9.028822,9.603682,9.014410999999999Q9.6761315,9,9.75,9L16.5,9Q16.57387,9,16.64632,9.014410999999999Q16.71877,9.028822,16.787010000000002,9.05709Q16.85526,9.085359,16.91668,9.126398Q16.9781,9.167437,17.03033,9.21967Q17.08256,9.271903,17.1236,9.333322Q17.16464,9.394742,17.19291,9.462987Q17.22118,9.531233,17.235590000000002,9.603682Q17.25,9.6761315,17.25,9.75L17.25,14.25Q17.25,14.32387,17.235590000000002,14.39632Q17.22118,14.46877,17.19291,14.53701Q17.16464,14.605260000000001,17.1236,14.66668Q17.08256,14.728100000000001,17.03033,14.78033Q16.9781,14.83256,16.91668,14.8736Q16.85526,14.91464,16.787010000000002,14.942910000000001Q16.71877,14.97118,16.64632,14.98559Q16.57387,15,16.5,15L9.75,15Q9.6761315,15,9.603682,14.98559Q9.531233,14.97118,9.462987,14.942910000000001Q9.394742,14.91464,9.333322,14.8736Q9.271903,14.83256,9.21967,14.78033Q9.167437,14.728100000000001,9.126398,14.66668Q9.085359,14.605260000000001,9.05709,14.53701Q9.028822,14.46877,9.014410999999999,14.39632Q9,14.32387,9,14.25ZM15.75,10.5L10.5,10.5L10.5,13.5L15.75,13.5L15.75,10.5Z" fill-rule="evenodd" fill="#909399" fill-opacity="1"/></g></g></g></svg>