<svg xmlns="http://www.w3.org/2000/svg" xmlns:xlink="http://www.w3.org/1999/xlink" fill="none" version="1.1" width="18" height="18" viewBox="0 0 18 18"><defs><clipPath id="master_svg0_210_7871"><rect x="0" y="0" width="18" height="18" rx="0"/></clipPath></defs><g><g style="opacity:0;"><rect x="0" y="0" width="18" height="18" rx="0" fill="#EDEFF2" fill-opacity="1"/></g><g clip-path="url(#master_svg0_210_7871)"><g><path d="M3.3089383,8.03149Q2.625,9.14358,2.625,11.03179Q2.625,13.6844,4.51149,15.4862Q6.358280000000001,17.25,9,17.25Q11.63605,17.25,13.4966,15.4182Q15.3749,13.5691,15.3749,10.91179Q15.3749,9.31036,14.87,7.79258Q14.4074,6.40243,13.8445,5.41423Q13.7707,5.28461,13.6528,5.193099999999999Q13.535,5.1015999999999995,13.3911,5.06216Q13.24727,5.02271,13.09926,5.04132Q12.95124,5.05994,12.82161,5.13378Q12.74515,5.1773299999999995,12.68085,5.2374Q12.61656,5.297470000000001,12.5679,5.37078Q12.51925,5.444100000000001,12.4889,5.52669Q12.45854,5.60928,12.44812,5.69665Q12.37498,6.30986,12.08033,6.80287Q12.03341,6.66444,11.98062,6.51457Q11.41772,4.91658,10.75105,3.93989Q9.89309,2.68304,8.0181,1.198252Q7.77352,1.004574,7.66897,0.919168Q7.61176,0.872436,7.54654,0.837762Q7.48131,0.803088,7.41058,0.781805Q7.339840000000001,0.760521,7.26631,0.753447Q7.19278,0.746373,7.1192899999999995,0.753779Q7.04579,0.761186,6.97515,0.782788Q6.90451,0.804391,6.839449999999999,0.839359Q6.77438,0.874328,6.71738,0.921319Q6.66039,0.968309,6.613659999999999,1.025516Q6.5316,1.125962,6.48804,1.24813Q6.44449,1.370299,6.44449,1.5Q6.44449,2.318812,6.23978,3.32211Q6.0313099999999995,4.343859999999999,5.74482,4.88267Q5.39496,5.54065,4.95304,6.02715Q4.8069,6.18802,4.71751,6.28819Q4.58303,6.43889,4.356189,6.68248Q3.715479,7.37051,3.3089383,8.03149ZM5.547499999999999,14.4014Q4.125,13.0428,4.125,11.03179Q4.125,9.56792,4.58661,8.81733Q4.91495,8.2835,5.45393,7.70471Q5.6916,7.44948,5.83664,7.28697Q5.92164,7.19172,6.06335,7.03572Q6.631349999999999,6.41042,7.06923,5.58688Q7.45763,4.85641,7.7095,3.62199Q7.77604,3.2958600000000002,7.82374,2.98427Q8.952580000000001,3.96581,9.51215,4.78554Q10.06815,5.60009,10.56583,7.01294Q10.95416,8.11535,10.95416,8.28097Q10.95416,8.40493,10.99405,8.52229Q11.03393,8.63966,11.109449999999999,8.73795Q11.20035,8.85624,11.3296,8.93075Q11.45885,9.00525,11.60677,9.024619999999999Q11.75469,9.044,11.89876,9.005289999999999Q12.04284,8.96658,12.16113,8.87568Q12.17263,8.86685,12.20801,8.840489999999999Q12.85433,8.358920000000001,13.26423,7.74616Q13.35716,7.9971,13.4467,8.26612Q13.8749,9.55334,13.8749,10.91179Q13.8749,12.9409,12.44429,14.3493Q11.02158,15.75,9,15.75Q6.95951,15.75,5.547499999999999,14.4014Z" fill-rule="evenodd" fill="#909399" fill-opacity="1"/></g></g></g></svg>