<svg xmlns="http://www.w3.org/2000/svg" xmlns:xlink="http://www.w3.org/1999/xlink" fill="none" version="1.1" width="18" height="18" viewBox="0 0 18 18"><defs><clipPath id="master_svg0_210_3817"><rect x="0" y="0" width="18" height="18" rx="0"/></clipPath></defs><g clip-path="url(#master_svg0_210_3817)"><g><path d="M3.219458,8.14303Q2.093126,9.86083,2.2754440000000002,11.6756Q2.553025,14.4385,4.36074,15.9023Q6.0250900000000005,17.25,8.67998,17.25Q11.82897,17.25,13.3616,16.362000000000002Q15.75,14.9782,15.75,11.31758Q15.75,7.56742,13.9181,5.16967Q13.8275,5.05112,13.6985,4.97626Q13.5694,4.901400000000001,13.4215,4.88162Q13.2737,4.86184,13.1295,4.90015Q12.98531,4.93846,12.86677,5.02904Q12.75212,5.11663,12.67815,5.2405100000000004Q11.93039,6.49288,11.39597,7.09667Q11.37851,7.1164,11.36141,7.1353Q11.35889,7.04469,11.35699,6.9413Q11.32015,4.93879,10.794080000000001,3.89637Q9.800180000000001,1.927085,7.3311,0.816053Q7.19505,0.754836,7.04594,0.750341Q6.89682,0.745846,6.75733,0.798757Q6.61785,0.851669,6.5092300000000005,0.953931Q6.40061,1.056194,6.33939,1.192239Q6.25318,1.38384,6.27905,1.5923464Q6.56517,3.89846,6.19162,4.8456Q6.11775,5.03287,5.25947,5.85022Q3.830647,7.2109,3.219458,8.14303ZM5.3047,14.7366Q3.9829980000000003,13.6663,3.76793,11.5256Q3.6386950000000002,10.23925,4.47386,8.96552Q4.99026,8.17794,6.29391,6.93647Q7.39175,5.89099,7.58701,5.39595Q7.95313,4.46765,7.8892,2.8373299999999997Q8.94881,3.56933,9.45495,4.5721799999999995Q9.826699999999999,5.30882,9.857240000000001,6.96888Q9.87149,7.74395,9.937529999999999,8.045770000000001Q10.1463,9,10.998709999999999,9Q11.7145,9,12.5192,8.09084Q12.8891,7.67291,13.3259,7.02409Q14.25,8.79236,14.25,11.31758Q14.25,14.1137,12.60963,15.0641Q11.42582,15.75,8.67998,15.75Q6.55625,15.75,5.3047,14.7366Z" fill-rule="evenodd" fill="#909399" fill-opacity="1"/></g><g><path d="M10.631440625,12.473672792968749Q10.427910624999999,11.65940279296875,9.527560625,10.68689279296875Q9.055670625,10.17717279296875,8.883610625,8.90276879296875Q8.863650625,8.75492579296875,8.788640625,8.62597479296875Q8.713620625,8.49702379296875,8.594960625,8.40659679296875Q8.476310625,8.31616979296875,8.332080625,8.27803279296875Q8.187860624999999,8.239895792968749,8.040010625,8.25985579296875Q7.808660625,8.29108979296875,7.635900625,8.44811379296875Q5.184650625,10.67613279296875,5.579307625,12.744642792968751Q5.748879625,13.63351279296875,6.391140625,14.23323279296875Q6.897228625,14.70580279296875,7.563010625,14.88836279296875Q8.989680625,15.27963279296875,10.061470625,14.32509279296875Q10.906170625,13.57280279296875,10.631440625,12.473672792968749ZM7.731660625,10.51992279296875Q7.997700625,11.24238279296875,8.426850625,11.70593279296875Q9.065940625,12.39623279296875,9.176210625,12.83740279296875Q9.230890625,13.056162792968749,9.063850625,13.20493279296875Q8.600570625,13.617532792968749,7.959670625,13.441762792968749Q7.199590625,13.233342792968749,7.052729625,12.46353279296875Q6.886904625,11.59439279296875,7.731660625,10.51992279296875Z" fill-rule="evenodd" fill="#909399" fill-opacity="1"/></g></g></svg>