<svg xmlns="http://www.w3.org/2000/svg" xmlns:xlink="http://www.w3.org/1999/xlink" fill="none" version="1.1" width="18" height="18" viewBox="0 0 18 18"><defs><clipPath id="master_svg0_210_3798"><rect x="0.75" y="0.75" width="16.5" height="16.5" rx="0"/></clipPath></defs><g><g style="opacity:0;"><rect x="0" y="0" width="18" height="18" rx="0" fill="#EDEFF2" fill-opacity="1"/></g><g clip-path="url(#master_svg0_210_3798)"><g><path d="M14.427,14.427Q16.675,12.1791,16.675,9Q16.675,8.92121,16.659599999999998,8.84393Q16.6443,8.76665,16.6141,8.693850000000001Q16.5839,8.62106,16.5402,8.55554Q16.4964,8.49003,16.4407,8.43431Q16.384999999999998,8.378599999999999,16.319499999999998,8.33482Q16.2539,8.29105,16.1811,8.2609Q16.1083,8.23074,16.031100000000002,8.21537Q15.9538,8.2,15.875,8.2Q15.7962,8.2,15.7189,8.21537Q15.6416,8.23074,15.5689,8.26089Q15.4961,8.29105,15.4305,8.33482Q15.365,8.378599999999999,15.3093,8.43431Q15.2536,8.49003,15.2098,8.55554Q15.166,8.62106,15.1359,8.693850000000001Q15.1057,8.76665,15.0904,8.84393Q15.075,8.92121,15.075,9Q15.075,11.51635,13.2957,13.2957Q11.51635,15.075,9,15.075Q6.48365,15.075,4.704330000000001,13.2957Q2.925,11.51635,2.925,9Q2.925,6.48365,4.704330000000001,4.704330000000001Q6.1939,3.21475,8.2,2.972184L8.2,7.625Q8.2,7.70379,8.21537,7.78107Q8.23074,7.85835,8.26089,7.93115Q8.29105,8.00394,8.33482,8.06945Q8.378599999999999,8.13497,8.43431,8.19068Q8.49003,8.246400000000001,8.55554,8.29017Q8.62106,8.33395,8.693850000000001,8.3641Q8.76665,8.39426,8.84393,8.40963Q8.92121,8.425,9,8.425Q9.07879,8.425,9.15607,8.40963Q9.23335,8.39426,9.306149999999999,8.3641Q9.37894,8.33395,9.44445,8.29017Q9.50997,8.246400000000001,9.56568,8.19068Q9.621400000000001,8.13497,9.66517,8.06946Q9.70895,8.00394,9.7391,7.93115Q9.76926,7.85835,9.78463,7.78107Q9.8,7.70379,9.8,7.625L9.8,2.125Q9.8,2.0462069,9.78463,1.968928Q9.76926,1.891649,9.7391,1.818853Q9.70895,1.746058,9.66517,1.680544Q9.621400000000001,1.61503,9.56568,1.559315Q9.50997,1.503599,9.44446,1.459824Q9.37894,1.4160490000000001,9.306149999999999,1.385896Q9.23335,1.355744,9.15607,1.340372Q9.07879,1.325,9,1.325Q5.82091,1.325,3.57295,3.57295Q1.325,5.82091,1.325,9Q1.325,12.1791,3.57295,14.427Q5.82091,16.675,9,16.675Q12.1791,16.675,14.427,14.427Z" fill-rule="evenodd" fill="#909399" fill-opacity="1"/></g><g><path d="M7.462048,7.462048Q6.825,8.099095,6.825,9Q6.825,9.9009,7.462048,10.53795Q8.099095,11.175,9,11.175Q9.9009,11.175,10.53795,10.53795Q11.175,9.9009,11.175,9Q11.175,8.099095,10.53795,7.462048Q9.9009,6.825,9,6.825Q8.099095,6.825,7.462048,7.462048ZM8.593419,9.40658Q8.425,9.23816,8.425,9Q8.425,8.76184,8.593419,8.593419Q8.76184,8.425,9,8.425Q9.23816,8.425,9.40658,8.593419Q9.575,8.76184,9.575,9Q9.575,9.23816,9.40658,9.40658Q9.23816,9.575,9,9.575Q8.76184,9.575,8.593419,9.40658Z" fill-rule="evenodd" fill="#909399" fill-opacity="1"/></g></g></g></svg>