<svg xmlns="http://www.w3.org/2000/svg" xmlns:xlink="http://www.w3.org/1999/xlink" fill="none" version="1.1" width="18.5" height="18" viewBox="0 0 18.5 18"><defs><clipPath id="master_svg0_210_3768"><rect x="0" y="0" width="18" height="18" rx="0"/></clipPath></defs><g><g style="opacity:0;"><rect x="0.5" y="0" width="18" height="18" rx="0" fill="#EDEFF2" fill-opacity="1"/></g><g clip-path="url(#master_svg0_210_3768)"><g><ellipse cx="5.25" cy="3.75" rx="3.75" ry="1.875" fill-opacity="0" stroke-opacity="1" stroke="#909399" fill="none" stroke-width="1.5" stroke-linecap="ROUND" stroke-linejoin="round"/></g><g><path d="M9.75,10.625L9.75,7Q9.75,6.9261315,9.73559,6.853682Q9.72118,6.781233,9.69291,6.712987Q9.66464,6.644742,9.6236,6.583322Q9.58256,6.521903,9.53033,6.46967Q9.478100000000001,6.417437,9.41668,6.376398Q9.355260000000001,6.335359,9.28701,6.30709Q9.21877,6.278822,9.14632,6.264411Q9.07387,6.25,9,6.25Q8.92613,6.25,8.85368,6.264411Q8.78123,6.278822,8.71299,6.30709Q8.644739999999999,6.335359,8.58332,6.376398Q8.521899999999999,6.417437,8.46967,6.46967Q8.41744,6.521903,8.3764,6.583322Q8.33536,6.644742,8.307089999999999,6.712987Q8.27882,6.781233,8.26441,6.853682Q8.25,6.9261315,8.25,7L8.25,10.625Q8.25,10.93812,7.56623,11.280000000000001Q6.62624,11.75,5.25,11.75Q3.87375,11.75,2.93376,11.280000000000001Q2.25,10.93812,2.25,10.625L2.25,7Q2.25,6.9261315,2.235589,6.853682Q2.221178,6.781233,2.19291,6.712987Q2.164641,6.644742,2.123602,6.583322Q2.082563,6.521903,2.03033,6.46967Q1.978097,6.417437,1.916678,6.376398Q1.855258,6.335359,1.787013,6.30709Q1.718767,6.278822,1.646318,6.264411Q1.5738685000000001,6.25,1.5,6.25Q1.4261314999999999,6.25,1.353682,6.264411Q1.281233,6.278822,1.212987,6.30709Q1.144742,6.335359,1.083322,6.376398Q1.021903,6.417437,0.96967,6.46967Q0.917437,6.521903,0.876398,6.583322Q0.835359,6.644742,0.80709,6.712987Q0.778822,6.781233,0.764411,6.853682Q0.75,6.9261315,0.75,7L0.75,10.625Q0.75,11.865169999999999,2.262938,12.62164Q3.51965,13.25,5.25,13.25Q6.98034,13.25,8.23705,12.62164Q9.75,11.865169999999999,9.75,10.625Z" fill-rule="evenodd" fill="#909399" fill-opacity="1"/></g><g><path d="M9.75,7.375L9.75,3.75Q9.75,3.6761315,9.73559,3.603682Q9.72118,3.531233,9.69291,3.462987Q9.66464,3.394742,9.6236,3.333322Q9.58256,3.271903,9.53033,3.21967Q9.478100000000001,3.167437,9.41668,3.126398Q9.355260000000001,3.085359,9.28701,3.05709Q9.21877,3.028822,9.14632,3.014411Q9.07387,3,9,3Q8.92613,3,8.85368,3.014411Q8.78123,3.028822,8.71299,3.05709Q8.644739999999999,3.085359,8.58332,3.126398Q8.521899999999999,3.167437,8.46967,3.21967Q8.41744,3.271903,8.3764,3.333322Q8.33536,3.394742,8.307089999999999,3.462987Q8.27882,3.531233,8.26441,3.603682Q8.25,3.6761315,8.25,3.75L8.25,7.375Q8.25,7.68812,7.56623,8.030000000000001Q6.62624,8.5,5.25,8.5Q3.87375,8.5,2.93376,8.030000000000001Q2.25,7.68812,2.25,7.375L2.25,3.75Q2.25,3.6761315,2.235589,3.603682Q2.221178,3.531233,2.19291,3.462987Q2.164641,3.394742,2.123602,3.333322Q2.082563,3.271903,2.03033,3.21967Q1.978097,3.167437,1.916678,3.126398Q1.855258,3.085359,1.787013,3.05709Q1.718767,3.028822,1.646318,3.014411Q1.5738685000000001,3,1.5,3Q1.4261314999999999,3,1.353682,3.014411Q1.281233,3.028822,1.212987,3.05709Q1.144742,3.085359,1.083322,3.126398Q1.021903,3.167437,0.96967,3.21967Q0.917437,3.271903,0.876398,3.333322Q0.835359,3.394742,0.80709,3.462987Q0.778822,3.531233,0.764411,3.603682Q0.75,3.6761315,0.75,3.75L0.75,7.375Q0.75,8.615169999999999,2.262938,9.37164Q3.51965,10,5.25,10Q6.98034,10,8.23705,9.37164Q9.75,8.615169999999999,9.75,7.375Z" fill-rule="evenodd" fill="#909399" fill-opacity="1"/></g><g><path d="M9.75,14.25L9.75,10.625Q9.75,10.5511315,9.73559,10.478682Q9.72118,10.406233,9.69291,10.337987Q9.66464,10.269742,9.6236,10.208322Q9.58256,10.146903,9.53033,10.09467Q9.478100000000001,10.042437,9.41668,10.001398Q9.355260000000001,9.960359,9.28701,9.93209Q9.21877,9.903822,9.14632,9.889410999999999Q9.07387,9.875,9,9.875Q8.92613,9.875,8.85368,9.889410999999999Q8.78123,9.903822,8.71299,9.93209Q8.644739999999999,9.960359,8.58332,10.001398Q8.521899999999999,10.042437,8.46967,10.09467Q8.41744,10.146903,8.3764,10.208322Q8.33536,10.269742,8.307089999999999,10.337987Q8.27882,10.406233,8.26441,10.478682Q8.25,10.5511315,8.25,10.625L8.25,14.25Q8.25,14.56312,7.56623,14.905000000000001Q6.62624,15.375,5.25,15.375Q3.87375,15.375,2.93376,14.905000000000001Q2.25,14.56312,2.25,14.25L2.25,10.625Q2.25,10.5511315,2.235589,10.478682Q2.221178,10.406233,2.19291,10.337987Q2.164641,10.269742,2.123602,10.208322Q2.082563,10.146903,2.03033,10.09467Q1.978097,10.042437,1.916678,10.001398Q1.855258,9.960359,1.787013,9.93209Q1.718767,9.903822,1.646318,9.889410999999999Q1.5738685000000001,9.875,1.5,9.875Q1.4261314999999999,9.875,1.353682,9.889410999999999Q1.281233,9.903822,1.212987,9.93209Q1.144742,9.960359,1.083322,10.001398Q1.021903,10.042437,0.96967,10.09467Q0.917437,10.146903,0.876398,10.208322Q0.835359,10.269742,0.80709,10.337987Q0.778822,10.406233,0.764411,10.478682Q0.75,10.5511315,0.75,10.625L0.75,14.25Q0.75,15.490169999999999,2.262938,16.24664Q3.51965,16.875,5.25,16.875Q6.98034,16.875,8.23705,16.24664Q9.75,15.490169999999999,9.75,14.25Z" fill-rule="evenodd" fill="#909399" fill-opacity="1"/></g><g><ellipse cx="12.75" cy="10.625" rx="3.75" ry="1.875" fill-opacity="0" stroke-opacity="1" stroke="#909399" fill="none" stroke-width="1.5" stroke-linecap="ROUND" stroke-linejoin="round"/></g><g><path d="M17.25,14.25L17.25,10.625Q17.25,10.5511315,17.235590000000002,10.478682Q17.22118,10.406233,17.192909999999998,10.337987Q17.16464,10.269742,17.1236,10.208322Q17.08256,10.146903,17.03033,10.09467Q16.9781,10.042437,16.91668,10.001398Q16.85526,9.960359,16.787010000000002,9.93209Q16.71877,9.903822,16.64632,9.889410999999999Q16.57387,9.875,16.5,9.875Q16.42613,9.875,16.35368,9.889410999999999Q16.28123,9.903822,16.212989999999998,9.93209Q16.14474,9.960359,16.08332,10.001398Q16.0219,10.042437,15.96967,10.09467Q15.91744,10.146903,15.8764,10.208322Q15.83536,10.269742,15.807089999999999,10.337987Q15.77882,10.406233,15.76441,10.478682Q15.75,10.5511315,15.75,10.625L15.75,14.25Q15.75,14.56312,15.066230000000001,14.905000000000001Q14.12624,15.375,12.75,15.375Q11.37375,15.375,10.43376,14.905000000000001Q9.75,14.56312,9.75,14.25L9.75,10.625Q9.75,10.5511315,9.735589000000001,10.478682Q9.721178,10.406233,9.69291,10.337987Q9.664641,10.269742,9.623602,10.208322Q9.582563,10.146903,9.53033,10.09467Q9.478097,10.042437,9.416678,10.001398Q9.355258,9.960359,9.287013,9.93209Q9.218767,9.903822,9.146318,9.889410999999999Q9.0738685,9.875,9,9.875Q8.9261315,9.875,8.853682,9.889410999999999Q8.781233,9.903822,8.712987,9.93209Q8.644742,9.960359,8.583322,10.001398Q8.521903,10.042437,8.46967,10.09467Q8.417437,10.146903,8.376398,10.208322Q8.335359,10.269742,8.30709,10.337987Q8.278822,10.406233,8.264410999999999,10.478682Q8.25,10.5511315,8.25,10.625L8.25,14.25Q8.25,15.490169999999999,9.762938,16.24664Q11.01965,16.875,12.75,16.875Q14.48034,16.875,15.73705,16.24664Q17.25,15.490169999999999,17.25,14.25Z" fill-rule="evenodd" fill="#909399" fill-opacity="1"/></g></g></g></svg>