<svg xmlns="http://www.w3.org/2000/svg" xmlns:xlink="http://www.w3.org/1999/xlink" fill="none" version="1.1" width="18" height="18" viewBox="0 0 18 18"><defs><clipPath id="master_svg0_210_3794"><rect x="0" y="0" width="18" height="18" rx="0"/></clipPath></defs><g><g style="opacity:0;"><rect x="0" y="0" width="18" height="18" rx="0" fill="#EDEFF2" fill-opacity="1"/></g><g clip-path="url(#master_svg0_210_3794)"><g><path d="M14.9812,11.23116Q14.2123,12,13.125,12L11.625,12Q11.5511,12,11.47868,12.01441Q11.40623,12.02882,11.33799,12.057089999999999Q11.26974,12.08536,11.20832,12.1264Q11.1469,12.16744,11.09467,12.21967Q11.04244,12.271899999999999,11.0014,12.33332Q10.96036,12.394739999999999,10.93209,12.46299Q10.90382,12.53123,10.88941,12.60368Q10.875,12.67613,10.875,12.75Q10.875,12.82387,10.88941,12.89632Q10.90382,12.96877,10.93209,13.03701Q10.96036,13.105260000000001,11.0014,13.16668Q11.04244,13.228100000000001,11.09467,13.28033Q11.1469,13.33256,11.20832,13.3736Q11.26974,13.41464,11.33799,13.442910000000001Q11.40623,13.47118,11.47868,13.48559Q11.5511,13.5,11.625,13.5L13.125,13.5Q14.8336,13.5,16.041800000000002,12.291820000000001Q17.25,11.083639999999999,17.25,9.375Q17.25,7.66636,16.041800000000002,6.458179Q14.8336,5.25,13.125,5.25Q11.41482,5.25,10.20633,6.460049Q9.53825,7.12899,8.36694,8.97284Q7.28101,10.68451,6.7257,11.236609999999999Q5.95782,12,4.875,12Q3.78769,12,3.01884,11.23116Q2.25,10.46232,2.25,9.375Q2.25,8.28768,3.01884,7.51884Q3.78769,6.75,4.875,6.75L6.375,6.75Q6.44887,6.75,6.52132,6.735589Q6.59377,6.721178,6.66201,6.69291Q6.73026,6.664641,6.79168,6.623602Q6.8531,6.582563,6.90533,6.53033Q6.95756,6.478097,6.9986,6.416678Q7.03964,6.355258,7.06791,6.287013Q7.09618,6.218767,7.11059,6.146318Q7.125,6.0738685,7.125,6Q7.125,5.9261315,7.11059,5.853682Q7.09618,5.781233,7.06791,5.712987Q7.03964,5.644742,6.9986,5.583322Q6.95756,5.521903,6.90533,5.46967Q6.8531,5.417437,6.79168,5.376398Q6.73026,5.335359,6.66201,5.30709Q6.59377,5.278822,6.52132,5.264411Q6.44887,5.25,6.375,5.25L4.875,5.25Q3.1663699999999997,5.25,1.958186,6.458179Q0.75,7.66636,0.75,9.375Q0.75,11.083639999999999,1.958186,12.291820000000001Q3.1663699999999997,13.5,4.875,13.5Q6.57657,13.5,7.78328,12.30034Q8.45766,11.62986,9.63306,9.77716Q10.71603,8.072379999999999,11.26767,7.52003Q12.0367,6.75,13.125,6.75Q14.2123,6.75,14.9812,7.51884Q15.75,8.28768,15.75,9.375Q15.75,10.46232,14.9812,11.23116Z" fill-rule="evenodd" fill="#909399" fill-opacity="1"/></g><g><path d="M13.65533,11.78033L13.65576,11.779901Q13.658760000000001,11.776895,13.66173,11.773856L13.66215,11.773421Q13.76451,11.668381,13.819749999999999,11.532522Q13.875,11.396663,13.875,11.25Q13.875,11.100816,13.81791,10.962987Q13.760819999999999,10.825159,13.65533,10.71967Q13.54984,10.614181,13.41201,10.55709Q13.27418,10.5,13.125,10.5Q12.97582,10.5,12.83799,10.55709Q12.70016,10.614181,12.59467,10.71967L11.09467,12.21967Q11.042437,12.2719,11.001398,12.33332Q10.960359,12.39474,10.93209,12.46299Q10.903822,12.53123,10.889410999999999,12.60368Q10.875,12.67613,10.875,12.75Q10.875,12.82387,10.889410999999999,12.89632Q10.903822,12.96877,10.93209,13.03701Q10.960359,13.10526,11.001398,13.16668Q11.042437,13.2281,11.09467,13.28033L12.59467,14.78033Q12.70016,14.885819999999999,12.83799,14.94291Q12.97582,15,13.125,15Q13.27418,15,13.41201,14.94291Q13.54984,14.885819999999999,13.65533,14.78033Q13.760819999999999,14.67484,13.81791,14.53701Q13.875,14.39918,13.875,14.25Q13.875,14.10082,13.81791,13.96299Q13.760819999999999,13.82516,13.65533,13.71967L12.68566,12.75L13.65533,11.78033Z" fill-rule="evenodd" fill="#909399" fill-opacity="1"/></g><g><path d="M5.4054839999999995,3.969824L5.40533,3.96967Q5.299841,3.864181,5.162013,3.80709Q5.024184,3.75,4.875,3.75Q4.725816,3.75,4.587987,3.80709Q4.450159,3.864181,4.34467,3.96967Q4.239181,4.075159,4.18209,4.212987Q4.125,4.350816,4.125,4.5Q4.125,4.649184,4.18209,4.787013Q4.239181,4.924841,4.34467,5.03033L4.344824,5.0304839999999995L5.31434,6L4.34467,6.96967Q4.239181,7.07516,4.18209,7.21299Q4.125,7.350820000000001,4.125,7.5Q4.125,7.649179999999999,4.18209,7.78701Q4.239181,7.92484,4.34467,8.03033Q4.450159,8.135819999999999,4.587987,8.19291Q4.725816,8.25,4.875,8.25Q5.024184,8.25,5.162013,8.19291Q5.299841,8.135819999999999,5.40533,8.03033L6.90533,6.53033Q6.95756,6.4780999999999995,6.9986,6.4166799999999995Q7.03964,6.3552599999999995,7.0679099999999995,6.28701Q7.09618,6.21877,7.11059,6.14632Q7.125,6.07387,7.125,6Q7.125,5.92613,7.11059,5.85368Q7.09618,5.78123,7.0679099999999995,5.71299Q7.03964,5.6447400000000005,6.9986,5.5833200000000005Q6.95756,5.5219000000000005,6.90533,5.46967L5.4054839999999995,3.969824Z" fill-rule="evenodd" fill="#909399" fill-opacity="1"/></g></g></g></svg>