<svg xmlns="http://www.w3.org/2000/svg" xmlns:xlink="http://www.w3.org/1999/xlink" fill="none" version="1.1" width="18" height="18" viewBox="0 0 18 18"><defs><clipPath id="master_svg0_210_7873"><rect x="0" y="0" width="18" height="18" rx="0"/></clipPath></defs><g clip-path="url(#master_svg0_210_7873)"><g><path d="M7.5,12.75L8.625,12.75Q8.69887,12.75,8.77132,12.7356Q8.84377,12.7212,8.91201,12.6929Q8.980260000000001,12.6646,9.04168,12.6236Q9.103100000000001,12.5826,9.15533,12.5303Q9.20756,12.4781,9.2486,12.4167Q9.28964,12.3553,9.317910000000001,12.287Q9.34618,12.2188,9.36059,12.1463Q9.375,12.0739,9.375,12Q9.375,11.9261,9.36059,11.8537Q9.34618,11.7812,9.317910000000001,11.713Q9.28964,11.6447,9.2486,11.5833Q9.20756,11.5219,9.15533,11.46967Q9.103100000000001,11.41744,9.04168,11.3764Q8.980260000000001,11.33536,8.91201,11.30709Q8.84377,11.27882,8.77132,11.26441Q8.69887,11.25,8.625,11.25L6.75,11.25Q6.67613,11.25,6.60368,11.26441Q6.53123,11.27882,6.46299,11.30709Q6.39474,11.33536,6.33332,11.3764Q6.2719,11.41744,6.21967,11.46967Q6.16744,11.5219,6.1264,11.5833Q6.08536,11.6447,6.05709,11.713Q6.02882,11.7812,6.01441,11.8537Q6,11.9261,6,12L6,14.5039L2.51077,10.51622L6,6.77777L6,9Q6,9.07387,6.01441,9.14632Q6.02882,9.21877,6.05709,9.28701Q6.08536,9.355260000000001,6.1264,9.41668Q6.16744,9.478100000000001,6.21967,9.53033Q6.2719,9.58256,6.33332,9.6236Q6.39474,9.66464,6.46299,9.69291Q6.53123,9.72118,6.60368,9.73559Q6.67613,9.75,6.75,9.75L10.125,9.75L10.125,12.75Q10.125,12.8239,10.13941,12.8963Q10.15382,12.9688,10.18209,13.037Q10.21036,13.1053,10.2514,13.1667Q10.29244,13.2281,10.34467,13.2803Q10.3969,13.3326,10.45832,13.3736Q10.51974,13.4146,10.58799,13.4429Q10.65623,13.4712,10.72868,13.4856Q10.80113,13.5,10.875,13.5Q11.02418,13.5,11.16201,13.4429Q11.29984,13.3858,11.40533,13.2803L17.0303,7.65533Q17.0826,7.6031,17.1236,7.54168Q17.1646,7.48026,17.1929,7.41201Q17.2212,7.34377,17.235599999999998,7.27132Q17.25,7.19887,17.25,7.125Q17.25,7.05113,17.235599999999998,6.97868Q17.2212,6.90623,17.1929,6.83799Q17.1646,6.76974,17.1236,6.70832Q17.0826,6.6469,17.0303,6.59467L11.40533,0.96967Q11.29984,0.864181,11.16201,0.80709Q11.02418,0.75,10.875,0.75Q10.72582,0.75,10.58799,0.80709Q10.45016,0.864181,10.34467,0.96967Q10.23918,1.075159,10.18209,1.212987Q10.125,1.350816,10.125,1.5L10.125,5.25L9,5.25Q8.92613,5.25,8.85368,5.26441Q8.78123,5.27882,8.71299,5.3070900000000005Q8.644739999999999,5.33536,8.58332,5.3764Q8.521899999999999,5.41744,8.46967,5.46967Q8.41744,5.5219,8.3764,5.58332Q8.33536,5.64474,8.307089999999999,5.71299Q8.27882,5.78123,8.26441,5.85368Q8.25,5.92613,8.25,6Q8.25,6.07387,8.26441,6.14632Q8.27882,6.21877,8.307089999999999,6.28701Q8.33536,6.35526,8.3764,6.41668Q8.41744,6.4781,8.46967,6.53033Q8.521899999999999,6.58256,8.58332,6.6236Q8.644739999999999,6.66464,8.71299,6.69291Q8.78123,6.72118,8.85368,6.73559Q8.92613,6.75,9,6.75L10.875,6.75Q10.94887,6.75,11.02132,6.73559Q11.09377,6.72118,11.16201,6.69291Q11.23026,6.66464,11.29168,6.6236Q11.3531,6.58256,11.40533,6.53033Q11.45756,6.4781,11.4986,6.41668Q11.5396,6.35526,11.5679,6.28701Q11.5962,6.21877,11.6106,6.14632Q11.625,6.07387,11.625,6L11.625,3.31066L15.4393,7.125L11.625,10.93934L11.625,9Q11.625,8.92613,11.6106,8.85368Q11.5962,8.78123,11.5679,8.71299Q11.5396,8.644739999999999,11.4986,8.58332Q11.45756,8.521899999999999,11.40533,8.46967Q11.3531,8.41744,11.29168,8.3764Q11.23026,8.33536,11.16201,8.307089999999999Q11.09377,8.27882,11.02132,8.26441Q10.94887,8.25,10.875,8.25L7.5,8.25L7.5,4.875Q7.5,4.71909,7.43786,4.576090000000001Q7.37572,4.43309,7.26174,4.32671Q7.15268,4.22492,7.01296,4.172610000000001Q6.87325,4.1203,6.72415,4.12545Q6.57506,4.13059,6.43928,4.19239Q6.3035,4.2542,6.20171,4.36326L0.951708,9.98826Q0.904568,10.03877,0.867447,10.09704Q0.830327,10.15531,0.804476,10.21938Q0.778626,10.28345,0.764916,10.35117Q0.751205,10.41888,0.750097,10.48796Q0.748988,10.55704,0.760518,10.62516Q0.772048,10.69328,0.795829,10.75815Q0.81961,10.82302,0.854841,10.88245Q0.890072,10.94188,0.935567,10.99388L6.18557,16.9939Q6.29238,17.1159,6.44009,17.183Q6.5878,17.25,6.75,17.25Q6.82387,17.25,6.89632,17.235599999999998Q6.96877,17.2212,7.03701,17.1929Q7.10526,17.1646,7.16668,17.1236Q7.2281,17.0826,7.28033,17.0303Q7.33256,16.978099999999998,7.3736,16.9167Q7.41464,16.8553,7.44291,16.787Q7.47118,16.7188,7.48559,16.6463Q7.5,16.573900000000002,7.5,16.5L7.5,12.75Z" fill-rule="evenodd" fill="#909399" fill-opacity="1"/></g></g></svg>