<svg xmlns="http://www.w3.org/2000/svg" xmlns:xlink="http://www.w3.org/1999/xlink" fill="none" version="1.1" width="18" height="18" viewBox="0 0 18 18"><defs><clipPath id="master_svg0_210_3823"><rect x="0" y="0" width="18" height="18" rx="0"/></clipPath></defs><g><g style="opacity:0;"><rect x="0" y="0" width="18" height="18" rx="0" fill="#EDEFF2" fill-opacity="1"/></g><g clip-path="url(#master_svg0_210_3823)"><g><path d="M17.031,10.01516Q17.031,9.11802,16.3985,8.48178L16.3968,8.48005L10.333359999999999,2.416637Q10.21732,2.300599,10.06571,2.237799Q9.914100000000001,2.175,9.75,2.175L3,2.175Q2.9187446,2.175,2.839051,2.190852Q2.759356,2.206704,2.684286,2.237799Q2.609216,2.268895,2.541655,2.314038Q2.474093,2.359181,2.416637,2.416637Q2.359181,2.474093,2.314038,2.541655Q2.268895,2.609216,2.237799,2.684286Q2.206704,2.759356,2.190852,2.839051Q2.175,2.9187446,2.175,3L2.175,9.75Q2.175,9.91422,2.2378869999999997,10.06593Q2.300775,10.21763,2.416962,10.33369L8.47975,16.389699999999998Q9.11695,17.0276,10.01854,17.0276Q10.92022,17.0276,11.55703,16.39L16.3985,11.54854Q17.031,10.9123,17.031,10.01516ZM15.2283,9.645050000000001L15.2301,9.64678Q15.381,9.79984,15.381,10.01516Q15.381,10.23171,15.2283,10.38528L10.3903,15.2233Q10.23619,15.3776,10.01854,15.3776Q9.80091,15.3776,9.647079999999999,15.2236L3.825,9.408000000000001L3.825,3.825L9.40827,3.825L15.2283,9.645050000000001Z" fill-rule="evenodd" fill="#909399" fill-opacity="1"/></g><g><path d="M8.25,7Q8.25,7.06141,8.24398,7.12252Q8.237960000000001,7.18363,8.22598,7.24386Q8.214,7.30409,8.19618,7.3628599999999995Q8.17835,7.42162,8.15485,7.47835Q8.13135,7.53509,8.1024,7.58925Q8.07345,7.6434,8.03934,7.69446Q8.00522,7.74552,7.96626,7.79299Q7.92731,7.84046,7.8838799999999996,7.8838799999999996Q7.84046,7.92731,7.79299,7.96626Q7.74552,8.00522,7.69446,8.03934Q7.6434,8.07345,7.58925,8.1024Q7.53509,8.13135,7.47835,8.15485Q7.42162,8.17835,7.3628599999999995,8.19618Q7.30409,8.214,7.24386,8.22598Q7.18363,8.237960000000001,7.12252,8.24398Q7.06141,8.25,7,8.25Q6.93859,8.25,6.87748,8.24398Q6.81637,8.237960000000001,6.75614,8.22598Q6.695908,8.214,6.637144,8.19618Q6.57838,8.17835,6.5216460000000005,8.15485Q6.464912,8.13135,6.410754,8.1024Q6.356597,8.07345,6.305537,8.03934Q6.254478,8.00522,6.207008,7.96626Q6.159539,7.92731,6.116116,7.8838799999999996Q6.072694,7.84046,6.033737,7.79299Q5.99478,7.74552,5.960663,7.69446Q5.926546,7.6434,5.897598,7.58925Q5.868651,7.53509,5.8451506,7.47835Q5.8216505,7.42162,5.8038246000000004,7.3628599999999995Q5.7859986,7.30409,5.7740184,7.24386Q5.7620382,7.18363,5.75601909,7.12252Q5.75,7.06141,5.75,7Q5.75,6.93859,5.75601909,6.87748Q5.7620382,6.81637,5.7740184,6.75614Q5.7859986,6.695908,5.8038246000000004,6.637144Q5.8216505,6.57838,5.8451506,6.5216460000000005Q5.868651,6.464912,5.897598,6.410754Q5.926546,6.356597,5.960663,6.305537Q5.99478,6.254478,6.033737,6.207008Q6.072694,6.159539,6.116116,6.116116Q6.159539,6.072694,6.207008,6.033737Q6.254478,5.99478,6.305537,5.960663Q6.356597,5.926546,6.410754,5.897598Q6.464912,5.868651,6.5216460000000005,5.8451506Q6.57838,5.8216505,6.637144,5.8038246000000004Q6.695908,5.7859986,6.75614,5.7740184Q6.81637,5.7620382,6.87748,5.75601909Q6.93859,5.75,7,5.75Q7.06141,5.75,7.12252,5.75601909Q7.18363,5.7620382,7.24386,5.7740184Q7.30409,5.7859986,7.3628599999999995,5.8038246000000004Q7.42162,5.8216505,7.47835,5.8451506Q7.53509,5.868651,7.58925,5.897598Q7.6434,5.926546,7.69446,5.960663Q7.74552,5.99478,7.79299,6.033737Q7.84046,6.072694,7.8838799999999996,6.116116Q7.92731,6.159539,7.96626,6.207008Q8.00522,6.254478,8.03934,6.305537Q8.07345,6.356597,8.1024,6.410754Q8.13135,6.464912,8.15485,6.5216460000000005Q8.17835,6.57838,8.19618,6.637144Q8.214,6.695908,8.22598,6.75614Q8.237960000000001,6.81637,8.24398,6.87748Q8.25,6.93859,8.25,7Z" fill="#909399" fill-opacity="1"/></g></g></g></svg>